
<svg width="617pt" height="373pt" xmlns="http://www.w3.org/2000/svg">
  <g class="graph">
    <path fill="#fff" stroke="transparent" d="M0 373V0h616.9v373H0z"/>
    <g class="node">
      <path fill="#eeaf81" stroke="#000" d="M529.48 4h-233c-6 0-12 6-12 12v44c0 6 6 12 12 12h233c6 0 12-6 12-12V16c0-6-6-12-12-12"/>
      <text x="288.48" y="-349.8" font-family="Helvetica,sans-Serif" font-size="14" transform="translate(4 369)">
        compressor_outlet_temp ≤ 787
      </text>
      <text x="348.98" y="-334.8" font-family="Helvetica,sans-Serif" font-size="14" transform="translate(4 369)">
        mse = 0.000228
      </text>
      <text x="349.98" y="-319.8" font-family="Helvetica,sans-Serif" font-size="14" transform="translate(4 369)">
        samples = 9547
      </text>
      <text x="342.48" y="-304.8" font-family="Helvetica,sans-Serif" font-size="14" transform="translate(4 369)">
        value = -0.025528
      </text>
    </g>
    <g class="node">
      <path fill="#eeac7c" stroke="#000" d="M398.48 108h-201c-6 0-12 6-12 12v44c0 6 6 12 12 12h201c6 0 12-6 12-12v-44c0-6-6-12-12-12"/>
      <text x="189.48" y="-245.8" font-family="Helvetica,sans-Serif" font-size="14" transform="translate(4 369)">
        hp_turbine_pressure ≤ 3.585
      </text>
      <text x="233.98" y="-230.8" font-family="Helvetica,sans-Serif" font-size="14" transform="translate(4 369)">
        mse = 0.000224
      </text>
      <text x="234.98" y="-215.8" font-family="Helvetica,sans-Serif" font-size="14" transform="translate(4 369)">
        samples = 9206
      </text>
      <text x="227.48" y="-200.8" font-family="Helvetica,sans-Serif" font-size="14" transform="translate(4 369)">
        value = -0.024894
      </text>
    </g>
    <g class="edge">
      <path fill="none" stroke="#000" d="M375.64 72.12c-10.34 9.17-21.68 19.23-32.42 28.76"/>
      <path stroke="#000" d="M345.33 103.68l-9.81 4.02 5.16-9.25 4.65 5.23z"/>
      <text text-anchor="middle" x="333.02" y="-282.55" font-family="Helvetica,sans-Serif" font-size="14" transform="translate(4 369)">
        True
      </text>
    </g>
    <g class="node">
      <path fill="#fff" stroke="#000" d="M591.48 115.5h-125c-6 0-12 6-12 12v29c0 6 6 12 12 12h125c6 0 12-6 12-12v-29c0-6-6-12-12-12"/>
      <text x="471.48" y="-238.3" font-family="Helvetica,sans-Serif" font-size="14" transform="translate(4 369)">
        mse = 2.9e-05
      </text>
      <text x="470.48" y="-223.3" font-family="Helvetica,sans-Serif" font-size="14" transform="translate(4 369)">
        samples = 341
      </text>
      <text x="458.48" y="-208.3" font-family="Helvetica,sans-Serif" font-size="14" transform="translate(4 369)">
        value = -0.042653
      </text>
    </g>
    <g class="edge">
      <path fill="none" stroke="#000" d="M450.64 72.12c13.39 11.76 28.42 24.99 41.72 36.68"/>
      <path stroke="#000" d="M494.76 106.25l5.2 9.23-9.82-3.97 4.62-5.26z"/>
      <text text-anchor="middle" x="494.36" y="-274.77" font-family="Helvetica,sans-Serif" font-size="14" transform="translate(4 369)">
        False
      </text>
    </g>
    <g class="node">
      <path fill="#efb287" stroke="#000" d="M290.48 212h-233c-6 0-12 6-12 12v44c0 6 6 12 12 12h233c6 0 12-6 12-12v-44c0-6-6-12-12-12"/>
      <text x="49.48" y="-141.8" font-family="Helvetica,sans-Serif" font-size="14" transform="translate(4 369)">
        compressor_outlet_temp ≤ 691.5
      </text>
      <text x="109.98" y="-126.8" font-family="Helvetica,sans-Serif" font-size="14" transform="translate(4 369)">
        mse = 0.000228
      </text>
      <text x="110.98" y="-111.8" font-family="Helvetica,sans-Serif" font-size="14" transform="translate(4 369)">
        samples = 7941
      </text>
      <text x="103.48" y="-96.8" font-family="Helvetica,sans-Serif" font-size="14" transform="translate(4 369)">
        value = -0.026339
      </text>
    </g>
    <g class="edge" stroke="#000">
      <path fill="none" d="M257.72 176.12c-11.26 9.26-23.62 19.43-35.3 29.03"/>
      <path d="M224.41 208.05l-9.95 3.65 5.5-9.06 4.45 5.41z"/>
    </g>
    <g class="node">
      <path fill="#e58139" stroke="#000" d="M485.48 219.5h-125c-6 0-12 6-12 12v29c0 6 6 12 12 12h125c6 0 12-6 12-12v-29c0-6-6-12-12-12"/>
      <text x="358.98" y="-134.3" font-family="Helvetica,sans-Serif" font-size="14" transform="translate(4 369)">
        mse = 0.000101
      </text>
      <text x="359.98" y="-119.3" font-family="Helvetica,sans-Serif" font-size="14" transform="translate(4 369)">
        samples = 1265
      </text>
      <text x="352.48" y="-104.3" font-family="Helvetica,sans-Serif" font-size="14" transform="translate(4 369)">
        value = -0.015821
      </text>
    </g>
    <g class="edge" stroke="#000">
      <path fill="none" d="M338.57 176.12c14.55 11.87 30.92 25.23 45.35 37"/>
      <path d="M386.17 210.45l5.54 9.03-9.96-3.61 4.42-5.42z"/>
    </g>
    <g class="node">
      <path fill="#eeaa7a" stroke="#000" d="M140.98 316.5h-116c-6 0-12 6-12 12v29c0 6 6 12 12 12h116c6 0 12-6 12-12v-29c0-6-6-12-12-12"/>
      <text x="18.98" y="-37.3" font-family="Helvetica,sans-Serif" font-size="14" transform="translate(4 369)">
        mse = 0.000225
      </text>
      <text x="19.98" y="-22.3" font-family="Helvetica,sans-Serif" font-size="14" transform="translate(4 369)">
        samples = 6971
      </text>
      <text x="16.98" y="-7.3" font-family="Helvetica,sans-Serif" font-size="14" transform="translate(4 369)">
        value = -0.02461
      </text>
    </g>
    <g class="edge" stroke="#000">
      <path fill="none" d="M142.15 280.23c-8.97 9.37-18.74 19.56-27.69 28.91"/>
      <path d="M116.92 311.63l-9.44 4.8 4.39-9.64 5.05 4.84z"/>
    </g>
    <g class="node">
      <path fill="#fbede2" stroke="#000" d="M329.48 316.5h-125c-6 0-12 6-12 12v29c0 6 6 12 12 12h125c6 0 12-6 12-12v-29c0-6-6-12-12-12"/>
      <text x="209.48" y="-37.3" font-family="Helvetica,sans-Serif" font-size="14" transform="translate(4 369)">
        mse = 7.6e-05
      </text>
      <text x="208.48" y="-22.3" font-family="Helvetica,sans-Serif" font-size="14" transform="translate(4 369)">
        samples = 970
      </text>
      <text x="196.48" y="-7.3" font-family="Helvetica,sans-Serif" font-size="14" transform="translate(4 369)">
        value = -0.038765
      </text>
    </g>
    <g class="edge" stroke="#000">
      <path fill="none" d="M206.51 280.23c9.17 9.37 19.15 19.56 28.3 28.91"/>
      <path d="M237.45 306.83l4.5 9.6-9.5-4.7 5-4.9z"/>
    </g>
  </g>
</svg>